<?xml version="1.0" encoding="UTF-8" standalone="no"?>
<!-- Created with Inkscape (http://www.inkscape.org/) -->

<svg
   width="66.027466mm"
   height="46.808144mm"
   viewBox="0 0 66.027466 46.808144"
   version="1.1"
   id="svg1"
   inkscape:version="1.3 (0e150ed, 2023-07-21)"
   sodipodi:docname="figure2.svg"
   xmlns:inkscape="http://www.inkscape.org/namespaces/inkscape"
   xmlns:sodipodi="http://sodipodi.sourceforge.net/DTD/sodipodi-0.dtd"
   xmlns="http://www.w3.org/2000/svg"
   xmlns:svg="http://www.w3.org/2000/svg">
  <sodipodi:namedview
     id="namedview1"
     pagecolor="#ffffff"
     bordercolor="#000000"
     borderopacity="0.25"
     inkscape:showpageshadow="2"
     inkscape:pageopacity="0.0"
     inkscape:pagecheckerboard="0"
     inkscape:deskcolor="#d1d1d1"
     inkscape:document-units="mm"
     inkscape:zoom="0.92737795"
     inkscape:cx="124.54469"
     inkscape:cy="87.882185"
     inkscape:window-width="1392"
     inkscape:window-height="1212"
     inkscape:window-x="41"
     inkscape:window-y="25"
     inkscape:window-maximized="0"
     inkscape:current-layer="layer1" />
  <defs
     id="defs1">
    <clipPath
       clipPathUnits="userSpaceOnUse"
       id="clipPath645">
      <path
         d="M 60.96,716.4 H 271.62 V 569.46 H 60.96 Z"
         clip-rule="evenodd"
         id="path645" />
    </clipPath>
  </defs>
  <g
     inkscape:label="Layer 1"
     inkscape:groupmode="layer"
     id="layer1"
     transform="translate(-72.231251,-125.14792)">
    <path
       id="path628"
       d="m 94.316727,133.00076 c -10.6045,0 -19.219332,8.67833 -19.219332,19.38866 0,10.7315 8.614832,19.40983 19.219332,19.40983 10.625663,0 19.219333,-8.67833 19.219333,-19.40983 0,-10.71033 -8.59367,-19.38866 -19.219333,-19.38866"
       style="fill:#ffffff;fill-opacity:1;fill-rule:evenodd;stroke:none;stroke-width:0.352778" />
    <path
       id="path629"
       d="m 94.316727,133.00076 c -10.6045,0 -19.219332,8.67833 -19.219332,19.38866 0,10.7315 8.614832,19.40983 19.219332,19.40983 10.625663,0 19.219333,-8.67833 19.219333,-19.40983 0,-10.71033 -8.59367,-19.38866 -19.219333,-19.38866 z"
       style="fill:none;stroke:#000000;stroke-width:0.228953;stroke-linecap:round;stroke-linejoin:round;stroke-miterlimit:10;stroke-dasharray:1.60189, 0.915352;stroke-dashoffset:0;stroke-opacity:1" />
    <path
       id="path630"
       d="m 95.69256,130.39726 c -2.264833,0 -4.106333,1.75683 -4.106333,3.91583 0,2.159 1.8415,3.91583 4.106333,3.91583 2.286,0 4.1275,-1.75683 4.1275,-3.91583 0,-2.159 -1.8415,-3.91583 -4.1275,-3.91583"
       style="fill:#ffffff;fill-opacity:1;fill-rule:evenodd;stroke:none;stroke-width:0.352778" />
    <path
       id="path631"
       d="m 95.69256,130.39726 c -2.264833,0 -4.106333,1.75683 -4.106333,3.91583 0,2.159 1.8415,3.91583 4.106333,3.91583 2.286,0 4.1275,-1.75683 4.1275,-3.91583 0,-2.159 -1.8415,-3.91583 -4.1275,-3.91583 z"
       style="fill:none;stroke:#000000;stroke-width:0.228953;stroke-linecap:round;stroke-linejoin:round;stroke-miterlimit:10;stroke-dasharray:none;stroke-opacity:1" />
    <text
       id="text631"
       xml:space="preserve"
       transform="scale(1.0314434,0.96951516)"
       x="91.544106"
       y="139.73711"
       style="font-size:4.10428px;stroke-width:0.342023"><tspan
         style="font-variant:normal;font-weight:normal;font-stretch:normal;font-size:3.55807px;font-family:'Times New Roman';writing-mode:lr-tb;fill:#000000;fill-opacity:1;fill-rule:nonzero;stroke:none;stroke-width:0.342023"
         x="91.544106 94.088127"
         y="139.73711"
         sodipodi:role="line"
         id="tspan631">A </tspan></text>
    <path
       id="path632"
       d="m 109.42973,138.16542 c -2.286,0 -4.1275,1.73567 -4.1275,3.89467 0,2.159 1.8415,3.89467 4.1275,3.89467 2.26483,0 4.10633,-1.73567 4.10633,-3.89467 0,-2.159 -1.8415,-3.89467 -4.10633,-3.89467"
       style="fill:#ffffff;fill-opacity:1;fill-rule:evenodd;stroke:none;stroke-width:0.352778" />
    <path
       id="path633"
       d="m 109.42973,138.16542 c -2.286,0 -4.1275,1.73567 -4.1275,3.89467 0,2.159 1.8415,3.89467 4.1275,3.89467 2.26483,0 4.10633,-1.73567 4.10633,-3.89467 0,-2.159 -1.8415,-3.89467 -4.10633,-3.89467 z"
       style="fill:none;stroke:#000000;stroke-width:0.228953;stroke-linecap:round;stroke-linejoin:round;stroke-miterlimit:10;stroke-dasharray:none;stroke-opacity:1" />
    <text
       id="text633"
       xml:space="preserve"
       transform="scale(1.0314434,0.96951516)"
       x="104.8625"
       y="147.74953"
       style="font-size:4.10428px;stroke-width:0.342023"><tspan
         style="font-variant:normal;font-weight:normal;font-stretch:normal;font-size:3.55807px;font-family:'Times New Roman';writing-mode:lr-tb;fill:#000000;fill-opacity:1;fill-rule:nonzero;stroke:none;stroke-width:0.342023"
         x="104.8625 107.20193"
         y="147.74953"
         sodipodi:role="line"
         id="tspan633">B </tspan></text>
    <path
       id="path634"
       d="m 112.18139,151.09825 c -2.286,0 -4.1275,1.75684 -4.1275,3.89467 0,2.159 1.8415,3.89467 4.1275,3.89467 2.26484,0 4.10634,-1.73567 4.10634,-3.89467 0,-2.13783 -1.8415,-3.89467 -4.10634,-3.89467"
       style="fill:#ffffff;fill-opacity:1;fill-rule:evenodd;stroke:none;stroke-width:0.352778" />
    <path
       id="path635"
       d="m 112.18139,151.09825 c -2.286,0 -4.1275,1.75684 -4.1275,3.89467 0,2.159 1.8415,3.89467 4.1275,3.89467 2.26484,0 4.10634,-1.73567 4.10634,-3.89467 0,-2.13783 -1.8415,-3.89467 -4.10634,-3.89467 z"
       style="fill:none;stroke:#000000;stroke-width:0.228953;stroke-linecap:round;stroke-linejoin:round;stroke-miterlimit:10;stroke-dasharray:none;stroke-opacity:1" />
    <text
       id="text635"
       xml:space="preserve"
       transform="scale(1.0314434,0.96951516)"
       x="107.50976"
       y="161.08902"
       style="font-size:4.10428px;stroke-width:0.342023"><tspan
         style="font-variant:normal;font-weight:normal;font-stretch:normal;font-size:3.55807px;font-family:'Times New Roman';writing-mode:lr-tb;fill:#000000;fill-opacity:1;fill-rule:nonzero;stroke:none;stroke-width:0.342023"
         x="107.50976 109.89011"
         y="161.08902"
         sodipodi:role="line"
         id="tspan635">C </tspan></text>
    <path
       id="path636"
       d="m 103.92639,164.03109 c -2.26483,0 -4.10633,1.73566 -4.10633,3.89466 0,2.159 1.8415,3.91584 4.10633,3.91584 2.286,0 4.1275,-1.75684 4.1275,-3.91584 0,-2.159 -1.8415,-3.89466 -4.1275,-3.89466"
       style="fill:#ffffff;fill-opacity:1;fill-rule:evenodd;stroke:none;stroke-width:0.352778" />
    <path
       id="path637"
       d="m 103.92639,164.03109 c -2.26483,0 -4.10633,1.73566 -4.10633,3.89466 0,2.159 1.8415,3.91584 4.10633,3.91584 2.286,0 4.1275,-1.75684 4.1275,-3.91584 0,-2.159 -1.8415,-3.89466 -4.1275,-3.89466 z"
       style="fill:none;stroke:#000000;stroke-width:0.228953;stroke-linecap:round;stroke-linejoin:round;stroke-miterlimit:10;stroke-dasharray:none;stroke-opacity:1" />
    <text
       id="text637"
       xml:space="preserve"
       transform="scale(1.0314434,0.96951516)"
       x="99.526924"
       y="174.4285"
       style="font-size:4.10428px;stroke-width:0.342023"><tspan
         style="font-variant:normal;font-weight:normal;font-stretch:normal;font-size:3.55807px;font-family:'Times New Roman';writing-mode:lr-tb;fill:#000000;fill-opacity:1;fill-rule:nonzero;stroke:none;stroke-width:0.342023"
         x="99.526924 102.09158"
         y="174.4285"
         sodipodi:role="line"
         id="tspan637">D </tspan></text>
    <path
       id="path638"
       d="m 84.707061,164.03109 c -2.264834,0 -4.106333,1.73566 -4.106333,3.89466 0,2.159 1.841499,3.91584 4.106333,3.91584 2.286,0 4.127499,-1.75684 4.127499,-3.91584 0,-2.159 -1.841499,-3.89466 -4.127499,-3.89466"
       style="fill:#ffffff;fill-opacity:1;fill-rule:evenodd;stroke:none;stroke-width:0.352778" />
    <path
       id="path639"
       d="m 84.707061,164.03109 c -2.264834,0 -4.106333,1.73566 -4.106333,3.89466 0,2.159 1.841499,3.91584 4.106333,3.91584 2.286,0 4.127499,-1.75684 4.127499,-3.91584 0,-2.159 -1.841499,-3.89466 -4.127499,-3.89466 z"
       style="fill:none;stroke:#000000;stroke-width:0.228953;stroke-linecap:round;stroke-linejoin:round;stroke-miterlimit:10;stroke-dasharray:none;stroke-opacity:1" />
    <text
       id="text639"
       xml:space="preserve"
       transform="scale(1.0314434,0.96951516)"
       x="80.893494"
       y="174.4285"
       style="font-size:4.10428px;stroke-width:0.342023"><tspan
         style="font-variant:normal;font-weight:normal;font-stretch:normal;font-size:3.55807px;font-family:'Times New Roman';writing-mode:lr-tb;fill:#000000;fill-opacity:1;fill-rule:nonzero;stroke:none;stroke-width:0.342023"
         x="80.893494 83.048973"
         y="174.4285"
         sodipodi:role="line"
         id="tspan639">E </tspan></text>
    <path
       id="path640"
       d="m 76.473228,151.09825 c -2.286,0 -4.1275,1.75684 -4.1275,3.89467 0,2.159 1.8415,3.89467 4.1275,3.89467 2.264833,0 4.1275,-1.73567 4.1275,-3.89467 0,-2.13783 -1.862667,-3.89467 -4.1275,-3.89467"
       style="fill:#ffffff;fill-opacity:1;fill-rule:evenodd;stroke:none;stroke-width:0.352778" />
    <path
       id="path641"
       d="m 76.473228,151.09825 c -2.286,0 -4.1275,1.75684 -4.1275,3.89467 0,2.159 1.8415,3.89467 4.1275,3.89467 2.264833,0 4.1275,-1.73567 4.1275,-3.89467 0,-2.13783 -1.862667,-3.89467 -4.1275,-3.89467 z"
       style="fill:none;stroke:#000000;stroke-width:0.228953;stroke-linecap:round;stroke-linejoin:round;stroke-miterlimit:10;stroke-dasharray:none;stroke-opacity:1" />
    <text
       id="text641"
       xml:space="preserve"
       transform="scale(1.0314434,0.96951516)"
       x="72.910667"
       y="161.08902"
       style="font-size:4.10428px;stroke-width:0.342023"><tspan
         style="font-variant:normal;font-weight:normal;font-stretch:normal;font-size:3.55807px;font-family:'Times New Roman';writing-mode:lr-tb;fill:#000000;fill-opacity:1;fill-rule:nonzero;stroke:none;stroke-width:0.342023"
         x="72.910667 74.859779"
         y="161.08902"
         sodipodi:role="line"
         id="tspan641">F </tspan></text>
    <path
       id="path642"
       d="m 81.955394,135.58309 c -2.264833,0 -4.106333,1.73567 -4.106333,3.89467 0,2.159 1.8415,3.89466 4.106333,3.89466 2.286,0 4.1275,-1.73566 4.1275,-3.89466 0,-2.159 -1.8415,-3.89467 -4.1275,-3.89467"
       style="fill:#ffffff;fill-opacity:1;fill-rule:evenodd;stroke:none;stroke-width:0.352778" />
    <path
       id="path643"
       d="m 81.955394,135.58309 c -2.264833,0 -4.106333,1.73567 -4.106333,3.89467 0,2.159 1.8415,3.89466 4.106333,3.89466 2.286,0 4.1275,-1.73566 4.1275,-3.89466 0,-2.159 -1.8415,-3.89467 -4.1275,-3.89467 z"
       style="fill:none;stroke:#000000;stroke-width:0.228953;stroke-linecap:round;stroke-linejoin:round;stroke-miterlimit:10;stroke-dasharray:none;stroke-opacity:1" />
    <text
       id="text643"
       xml:space="preserve"
       transform="scale(1.0314434,0.96951516)"
       x="78.225716"
       y="145.06416"
       style="font-size:4.10428px;stroke-width:0.342023"><tspan
         style="font-variant:normal;font-weight:normal;font-stretch:normal;font-size:3.55807px;font-family:'Times New Roman';writing-mode:lr-tb;fill:#000000;fill-opacity:1;fill-rule:nonzero;stroke:none;stroke-width:0.342023"
         x="78.225716 80.790367"
         y="145.06416"
         sodipodi:role="line"
         id="tspan643">G </tspan></text>
    <path
       id="path644"
       d="m 178.02,715.92 -13.2,-18.6 c -0.12,-0.18 -0.36,-0.24 -0.6,-0.12 -0.18,0.12 -0.24,0.36 -0.12,0.54 l 13.2,18.66 c 0.12,0.18 0.42,0.24 0.6,0.12 0.18,-0.18 0.24,-0.42 0.12,-0.6 z m -10.92,-19.08 -5.04,-2.7 0.72,5.46"
       style="fill:#000000;fill-opacity:1;fill-rule:nonzero;stroke:none"
       transform="matrix(0.35277776,0,0,-0.35277776,45.379396,377.87791)"
       clip-path="url(#clipPath645)" />
    <path
       id="path646"
       d="m 108.05389,133.00076 h 21.971 v -7.76817 h -21.971 z"
       style="fill:#ffffff;fill-opacity:1;fill-rule:nonzero;stroke:none;stroke-width:0.352778" />
    <text
       id="text646"
       xml:space="preserve"
       transform="scale(1.0314434,0.96951516)"
       x="106.8736"
       y="133.58041"
       style="font-size:4.10428px;stroke-width:0.342023"><tspan
         style="font-variant:normal;font-weight:normal;font-stretch:normal;font-size:3.55807px;font-family:'Times New Roman';writing-mode:lr-tb;fill:#000000;fill-opacity:1;fill-rule:nonzero;stroke:none;stroke-width:0.342023"
         x="106.8736 109.43825 111.06002 112.76327 113.66631 116.21032"
         y="133.58041"
         sodipodi:role="line"
         id="tspan646">Key K </tspan></text>
    <path
       id="path647"
       d="m 116.28773,143.35126 c 1.524,0 2.75166,4.63549 2.75166,10.35049 0,0.889 -0.0423,1.778 -0.0847,2.64584 m -10.90084,15.45166 c 5.54567,0 10.24467,-6.70983 10.9855,-15.72683"
       style="fill:none;stroke:#000000;stroke-width:0.228953;stroke-linecap:round;stroke-linejoin:round;stroke-miterlimit:10;stroke-dasharray:0.0002286, 0.457694;stroke-dashoffset:0;stroke-opacity:1" />
    <path
       id="path648"
       d="m 119.03939,169.21692 h 19.21933 v -25.86566 h -19.21933 z"
       style="fill:#ffffff;fill-opacity:1;fill-rule:nonzero;stroke:none;stroke-width:0.352778" />
    <text
       id="text648"
       xml:space="preserve"
       transform="scale(1.0314545,0.96950468)"
       x="117.85127"
       y="151.61548"
       style="font-size:4.10424px;stroke-width:0.34202"><tspan
         style="font-variant:normal;font-weight:normal;font-stretch:normal;font-size:2.9532px;font-family:'Times New Roman';writing-mode:lr-tb;fill:#000000;fill-opacity:1;fill-rule:nonzero;stroke:none;stroke-width:0.34202"
         x="117.85127 119.96458 121.46245 122.96031 124.27419 125.40232 126.14121 128.13226 128.89183 129.63072 131.58012"
         y="151.61548"
         sodipodi:role="line"
         id="tspan648">Nodes B, C </tspan><tspan
         style="font-variant:normal;font-weight:normal;font-stretch:normal;font-size:2.9532px;font-family:'Times New Roman';writing-mode:lr-tb;fill:#000000;fill-opacity:1;fill-rule:nonzero;stroke:none;stroke-width:0.34202"
         x="117.87195 119.18465 120.64175 122.13992 122.87881 125.0125 125.75139 126.90166 127.72413 129.20221 130.20776 131.52046"
         y="154.99954"
         sodipodi:role="line"
         id="tspan649">and D store </tspan><tspan
         style="font-variant:normal;font-weight:normal;font-stretch:normal;font-size:2.9532px;font-family:'Times New Roman';writing-mode:lr-tb;fill:#000000;fill-opacity:1;fill-rule:nonzero;stroke:none;stroke-width:0.34202"
         x="120.49853 121.95534 123.31027 124.76708 125.8961 126.65536 127.45657 128.91338"
         y="158.42734"
         sodipodi:role="line"
         id="tspan650">keys in </tspan><tspan
         style="font-variant:normal;font-weight:normal;font-stretch:normal;font-size:2.9532px;font-family:'Times New Roman';writing-mode:lr-tb;fill:#000000;fill-opacity:1;fill-rule:nonzero;stroke:none;stroke-width:0.34202"
         x="117.62565 118.63121 119.94509 121.40221 122.85931 124.17319 124.91209 125.93803 128.03067 128.76956 130.76003 131.76558"
         y="161.83327"
         sodipodi:role="line"
         id="tspan651">range (A,B) </tspan><tspan
         style="font-variant:normal;font-weight:normal;font-stretch:normal;font-size:2.9532px;font-family:'Times New Roman';writing-mode:lr-tb;fill:#000000;fill-opacity:1;fill-rule:nonzero;stroke:none;stroke-width:0.34202"
         x="119.12381 119.94509 121.40221 122.71609 123.55804 125.01486 126.51302 127.31422 128.81238 130.2692"
         y="165.2392"
         sodipodi:role="line"
         id="tspan652">including </tspan><tspan
         style="font-variant:normal;font-weight:normal;font-stretch:normal;font-size:2.9532px;font-family:'Times New Roman';writing-mode:lr-tb;fill:#000000;fill-opacity:1;fill-rule:nonzero;stroke:none;stroke-width:0.34202"
         x="123.26922 125.40261 126.1421"
         y="168.66698"
         sodipodi:role="line"
         id="tspan653">K. </tspan></text>
  </g>
</svg>
